<svg xmlns="http://www.w3.org/2000/svg" viewBox="0 0 512 512">
  <rect width="512" height="512" rx="80" fill="#0F172A"/>
  <path d="M256 60 C256 60 160 180 160 300 C160 380 200 440 256 460 C312 440 352 380 352 300 C352 180 256 60 256 60 Z" fill="#F97316"/>
  <path d="M256 140 C256 140 200 220 200 300 C200 350 225 390 256 400 C287 390 312 350 312 300 C312 220 256 140 256 140 Z" fill="#FBBF24"/>
  <path d="M256 220 C256 220 230 260 230 300 C230 330 242 350 256 360 C270 350 282 330 282 300 C282 260 256 220 256 220 Z" fill="#FEF3C7"/>
</svg>
